<mxfile host="app.diagrams.net" modified="2024-06-05T22:11:23.182Z" agent="Mozilla/5.0 (Windows NT 10.0; Win64; x64) AppleWebKit/537.36 (KHTML, like Gecko) Chrome/125.0.0.0 Safari/537.36" version="24.4.14" etag="wbLZKwY1_bEw6weqbL9D" type="github">
  <diagram name="Page-1" id="iP8E60EkU045JZIT_PgT">
    <mxGraphModel>
      <root>
        <mxCell id="0" />
        <mxCell id="1" parent="0" />
      </root>
    </mxGraphModel>
  </diagram>
</mxfile>
